<?xml version="1.0" encoding="utf-8"?>
<!DOCTYPE svg PUBLIC "-//W3C//DTD SVG 1.1//EN" "http://www.w3.org/Graphics/SVG/1.1/DTD/svg11.dtd">
<svg version="1.1" xmlns="http://www.w3.org/2000/svg" viewBox="0 0 142 142">
<rect fill="#1D9DD9" width="142" height="142"/>
<polygon opacity="0.2" fill="#FFFFFF" points="142,142 0,142 142,0 "/>
<g fill="#FFFFFF">
	<path d="M38,86.9h-3c-0.5,0-0.8-0.3-0.8-0.8V56.7c0-0.5,0.3-0.8,0.8-0.8h11.3c2.3,0,4.2,0.7,5.5,2
		c1.3,1.3,2,3.2,2,5.5v4.1c0,3.7-1.5,6-4.6,7v0.2L54.5,86c0.4,0.6,0.1,1-0.6,1h-3c-0.8,0-1.3-0.3-1.5-0.8L44.3,75h-4.9
		c-0.4,0-0.6,0.2-0.6,0.5v10.6C38.8,86.7,38.5,86.9,38,86.9z M39.3,71.1h6.1c2.4,0,3.6-1.2,3.6-3.5v-4.1c0-2.4-1.2-3.6-3.6-3.6h-6.1
		c-0.4,0-0.5,0.2-0.5,0.5v10.2C38.8,71,39,71.1,39.3,71.1z"/>
	<path d="M64.2,86.9h-3c-0.5,0-0.8-0.3-0.8-0.8V56.7c0-0.5,0.3-0.8,0.8-0.8h3c0.5,0,0.8,0.3,0.8,0.8v12.1
		c0,0.3,0.2,0.5,0.6,0.5h10.2c0.3,0,0.5-0.2,0.5-0.5V56.7c0-0.5,0.3-0.8,0.8-0.8h3.1c0.5,0,0.8,0.3,0.8,0.8v29.4
		c0,0.5-0.3,0.8-0.8,0.8h-3.1c-0.5,0-0.8-0.3-0.8-0.8V73.9c0-0.3-0.2-0.5-0.5-0.5H65.6c-0.4,0-0.6,0.2-0.6,0.5v12.2
		C65.1,86.7,64.8,86.9,64.2,86.9z"/>
	<path d="M100.3,86.9h-5.2c-2.4,0-4.2-0.7-5.5-2c-1.3-1.3-2-3.2-2-5.5V63.4c0-2.4,0.7-4.2,2-5.5c1.3-1.3,3.1-2,5.5-2
		h5.2c2.4,0,4.2,0.7,5.5,2c1.3,1.3,2,3.1,2,5.5v1.7c0,0.6-0.3,0.9-0.8,0.9h-3c-0.5,0-0.8-0.3-0.8-0.9v-1.5c0-2.4-1.2-3.6-3.5-3.6
		h-3.8c-2.3,0-3.5,1.2-3.5,3.6v15.7c0,2.4,1.2,3.6,3.5,3.6h3.8c2.3,0,3.5-1.2,3.5-3.6v-4.3c0-0.3-0.2-0.5-0.5-0.5h-3.9
		c-0.5,0-0.8-0.3-0.8-0.8v-2.5c0-0.5,0.3-0.8,0.8-0.8h8.1c0.7,0,1,0.3,1,1v8.1c0,2.3-0.7,4.2-2,5.5
		C104.5,86.3,102.7,86.9,100.3,86.9z"/>
</g>
</svg>